<?xml version="1.0" standalone="no"?>
<!DOCTYPE svg PUBLIC "-//W3C//DTD SVG 20010904//EN"
 "http://www.w3.org/TR/2001/REC-SVG-20010904/DTD/svg10.dtd">
<svg version="1.0" xmlns="http://www.w3.org/2000/svg"
 width="500.000000pt" height="292.000000pt" viewBox="0 0 500.000000 292.000000"
 preserveAspectRatio="xMidYMid meet">

<g transform="translate(0.000000,292.000000) scale(0.100000,-0.100000)"
fill="#000000" stroke="none">
<path d="M2456 2667 l-197 -252 196 -3 c108 -1 281 -1 385 0 l189 3 -185 250
c-102 138 -187 251 -188 252 -1 2 -91 -111 -200 -250z"/>
<path d="M3743 2708 l-151 -173 155 -3 c85 -1 221 -1 303 0 l148 3 -144 165
c-80 91 -149 169 -153 173 -4 4 -75 -70 -158 -165z"/>
<path d="M0 1500 l0 -680 120 0 120 0 2 506 3 507 360 -507 360 -506 147 0
148 0 -74 103 c-40 56 -252 354 -471 662 -218 308 -404 568 -413 578 -13 15
-34 17 -159 17 l-143 0 0 -680z"/>
<path d="M1020 1860 l0 -320 120 0 120 0 0 320 0 320 -120 0 -120 0 0 -320z"/>
<path d="M1940 2166 c-36 -8 -84 -21 -108 -30 -233 -84 -411 -303 -446 -548
l-7 -48 119 0 120 0 12 53 c30 129 124 244 248 304 126 61 274 58 408 -8 34
-17 83 -51 108 -75 l46 -43 56 72 c32 40 64 80 72 90 15 16 11 22 -43 77 -66
66 -161 121 -251 145 -85 22 -255 28 -334 11z"/>
<path d="M4335 2170 c-32 -6 -81 -17 -107 -26 -54 -18 -152 -79 -187 -117 -28
-31 -34 -19 81 -148 l76 -87 11 43 c24 95 117 141 270 133 129 -7 207 -57 226
-145 l7 -33 120 0 121 0 -7 48 c-15 114 -75 210 -167 268 -96 60 -289 88 -444
64z"/>
<path d="M2863 1767 c3 -8 78 -110 168 -228 89 -118 166 -221 172 -229 7 -13
-30 -67 -167 -248 -97 -127 -176 -234 -176 -237 0 -3 46 -5 103 -5 l102 0 125
165 c68 91 127 165 130 165 4 0 62 -74 131 -165 l124 -165 103 0 c56 0 102 3
101 8 0 4 -161 219 -358 477 l-357 470 -103 3 c-85 2 -102 0 -98 -11z"/>
<path d="M3473 1623 c-60 -87 -113 -164 -117 -170 -6 -10 16 -13 97 -13 l104
0 110 158 c60 86 113 163 117 170 6 9 -16 12 -97 12 l-104 0 -110 -157z"/>
<path d="M3960 1762 c0 -35 30 -118 54 -151 61 -82 161 -126 406 -180 173 -37
246 -65 291 -110 42 -42 55 -92 39 -150 -22 -82 -80 -123 -202 -142 -195 -30
-361 44 -387 173 l-7 33 -109 3 c-60 1 -114 1 -120 -2 -19 -7 0 -102 35 -172
54 -111 165 -190 320 -230 100 -25 318 -15 426 19 226 74 339 263 278 468 -47
158 -173 234 -497 299 -177 36 -241 66 -270 123 l-19 37 -119 0 c-108 0 -119
-2 -119 -18z"/>
<path d="M2165 1423 l-96 -118 186 -3 c102 -1 185 -6 185 -10 0 -20 -61 -101
-101 -135 -171 -147 -400 -135 -565 28 -73 72 -119 158 -142 265 l-17 77 -102
-130 -101 -131 20 -41 c80 -157 220 -287 381 -354 102 -42 180 -55 295 -48
170 9 301 67 421 188 119 120 187 271 198 442 l6 87 -236 0 -236 0 -96 -117z"/>
<path d="M760 580 c0 -10 388 -560 402 -570 8 -6 448 553 448 569 0 8 -132 11
-425 11 -276 0 -425 -3 -425 -10z"/>
<path d="M3330 464 c0 -7 100 -144 105 -144 4 0 97 118 109 138 5 9 -18 12
-103 12 -61 0 -111 -3 -111 -6z"/>
</g>
</svg>
